inDegrees=yes
name=ik_S48_A13_T02
DataType=double
version=3
OpenSimVersion=4.3-2021-08-27-4bc7ad9
endheader
time	pelvis_tilt	pelvis_list	pelvis_rotation	pelvis_tx	pelvis_ty	pelvis_tz	hip_flexion_r	hip_adduction_r	hip_rotation_r	knee_angle_r	knee_angle_r_beta	ankle_angle_r	subtalar_angle_r	mtp_angle_r	hip_flexion_l	hip_adduction_l	hip_rotation_l	knee_angle_l	knee_angle_l_beta	ankle_angle_l	subtalar_angle_l	mtp_angle_l	lumbar_extension	lumbar_bending	lumbar_rotation	arm_flex_r	arm_add_r	arm_rot_r	elbow_flex_r	pro_sup_r	wrist_flex_r	wrist_dev_r	arm_flex_l	arm_add_l	arm_rot_l	elbow_flex_l	pro_sup_l	wrist_flex_l	wrist_dev_l
0	0	0	0	0	0.9399999999999999	0	0	0	0	0	0	0	0	0	0	0	0	0	0	0	0	0	0	0	0	0	0	0	0	89.99999999963507	0	0	0	0	0	0	89.99999999869995	0	0
0.02	-2.334923932126244	-3.136860979982013	35.61992582063959	0	0.9399999999999999	0	2.150332982447165	-1.035911422252287	-0.7236714104129259	3.321140570233434	0.0579648378721354	0	0	0	2.150332982447165	-1.035911422252287	-0.7236714104129259	3.321140570233434	0.0579648378721354	0	0	0	-1.161451455460716	-1.498024955542672	13.46603350304617	20.54044680167074	-3.396059265619881	15.35918925818196	34.23378159097717	179.8378250334136	0	0	11.35200190507872	-13.062715733347	9.532840706064961	34.21524592971958	151.1597155186672	0	0
0.04	-2.350113000280922	-3.13888821785464	35.64533718087579	0	0.9399999999999999	0	2.161463411729313	-1.041672720669863	-0.7274490071754776	3.337469750293733	0.05824983582833863	0	0	0	2.161463411729313	-1.041672720669863	-0.7274490071754776	3.337469750293733	0.05824983582833863	0	0	0	-1.177946654749042	-1.487867294049779	13.40859147142991	20.67782024210548	-3.491739559413556	15.52243241667866	34.47689293200657	179.8536391558297	0	0	11.37960089106239	-13.07959384531275	9.579930874159299	34.24457472177433	151.1404133941069	0	0
0.06	-2.331108014956241	-3.140738981383072	35.74113614425363	0	0.9399999999999999	0	2.199151894723683	-1.061286005696632	-0.7402543007893921	3.392719234974982	0.05921412124605659	0	0	0	2.199151894723683	-1.061286005696632	-0.7402543007893921	3.392719234974982	0.05921412124605659	0	0	0	-1.167541521505519	-1.4982661972461	13.3483152246874	20.78710711062637	-3.635023305350899	15.89646805505338	35.24590886314277	179.8681071265506	0	0	11.39681346337129	-13.13148714047349	9.703967785114662	34.25525806603126	151.0919023878809	0	0
0.08	-2.341776753660687	-3.143006220334761	35.77543626557118	0	0.9399999999999999	0	2.211684428542143	-1.067787378562467	-0.7445112642823264	3.411045961245087	0.05953398296058166	0	0	0	2.211684428542143	-1.067787378562467	-0.7445112642823264	3.411045961245087	0.05953398296058166	0	0	0	-1.180196962278735	-1.490038141793005	13.28505833623059	20.95835012995526	-3.705101308734124	16.16744945033409	35.47558734537284	179.8776892768997	0	0	11.42319723864765	-13.12859768227847	9.644252553534862	34.25263426097137	151.0810733018635	0	0
0.1	-2.340961189927285	-3.141835027897713	35.8187279271258	0	0.9399999999999999	0	2.223327275905076	-1.073825247336619	-0.7484662572695697	3.428055364376425	0.05983085304902254	0	0	0	2.223327275905076	-1.073825247336619	-0.7484662572695697	3.428055364376425	0.05983085304902254	0	0	0	-1.181082501431703	-1.485841073781169	13.22557652232132	21.07426260917147	-3.729607089115546	16.46564581946973	35.72803989396831	179.8841073358219	0	0	11.44287251182504	-13.13216126568572	9.610599258954021	34.25377185366953	151.1001996280134	0	0
0.12	-2.330007030608848	-3.130460144758259	35.85197818858874	0	0.9399999999999999	0	2.234884025204575	-1.079819825336953	-0.7523925855691698	3.444925155492175	0.06012528644811607	0	0	0	2.234884025204575	-1.079819825336953	-0.7523925855691698	3.444925155492175	0.06012528644811607	0	0	0	-1.16715339942426	-1.479561975144536	13.17386658666944	21.13102210213432	-3.723324951428802	16.72668520685706	35.72761785357389	179.8763839964675	0	0	11.43270417715932	-13.13047373849804	9.562677966948899	34.24209719096099	151.0450142097055	0	0
0.14	-2.325327354414366	-3.125459757713819	35.90233681383325	0	0.9399999999999999	0	2.245635062644971	-1.085393075760562	-0.756045178382717	3.460604260491569	0.06039893845412141	0	0	0	2.245635062644971	-1.085393075760562	-0.756045178382717	3.460604260491569	0.06039893845412141	0	0	0	-1.162043360475891	-1.474723178595964	13.12025347192975	21.22356876379725	-3.700520165039248	17.04903995864308	35.89990964043142	179.8794137082267	0	0	11.42408212664916	-13.1240401475578	9.546523337565034	34.24871645982815	151.0284252518901	0	0
0.16	-2.314033273167069	-3.126003967989214	35.9330366258657	0	0.9399999999999999	0	2.26214836296414	-1.093955271084876	-0.7616563878077035	3.48466353450364	0.06081885200127155	0	0	0	2.26214836296414	-1.093955271084876	-0.7616563878077035	3.48466353450364	0.06081885200127155	0	0	0	-1.155100170255909	-1.480325926824836	13.09003642368875	21.20386788889441	-3.694156966702208	17.03863515532386	35.94799608488628	179.879622826338	0	0	11.4199531574306	-13.11767683104301	9.532404496920526	34.2573542897024	151.0519478268442	0	0
0.18	-2.315842992692512	-3.126762765676864	35.9866285438297	0	0.9399999999999999	0	2.274854924248759	-1.100545429492533	-0.7659748433015333	3.503157274957035	0.06114162866319255	0	0	0	2.274854924248759	-1.100545429492533	-0.7659748433015333	3.503157274957035	0.06114162866319255	0	0	0	-1.158605871692049	-1.476300742287015	13.03522612025306	21.2937214643248	-3.611314536934054	17.36747902897908	36.21650024961296	179.880136940028	0	0	11.44489958403625	-13.11097957015026	9.496693014864427	34.262646024643	151.0464226982544	0	0
0.2	-2.300137583160883	-3.096245714955258	36.0134276338553	0	0.9399999999999999	0	2.285881502627923	-1.106257708306327	-0.7697220387206926	3.519188993116194	0.06142143492982165	2.155227684594804e-35	0	0	2.285881502627923	-1.106257708306327	-0.7697220387206926	3.519188993116194	0.06142143492982165	2.155227684594804e-35	0	0	-1.130191569518262	-1.456407164070435	12.96809746975803	21.30511690898275	-3.556855929261189	17.69147233983628	36.3427771656411	179.8809239201238	0	0	11.41157154530799	-13.10184540432633	9.426675017838798	34.24702387061161	151.0470623546916	0	0
0.22	-2.285314641951566	-3.072457536733188	36.08380965057425	0	0.9399999999999999	0	2.295800335636685	-1.111393979915347	-0.773092862286627	3.533598021423936	0.06167291991580482	0	0	0	2.295800335636685	-1.111393979915347	-0.773092862286627	3.533598021423936	0.06167291991580482	0	0	0	-1.106076461591984	-1.442365289828677	12.91070252247187	21.3963223679167	-3.452611061230649	18.13334379797872	36.34227510791914	179.8787208213924	0	0	11.38143517597334	-13.08303085326484	9.442700698686021	34.23825703277651	151.0552773281664	0	0
0.24	-2.281801447422049	-3.069379029556317	36.12804497332402	0	0.9399999999999999	0	2.306511460796502	-1.116940179361014	-0.7767332597277486	3.54914631747546	0.06194428887497874	0	0	0	2.306511460796502	-1.116940179361014	-0.7767332597277486	3.54914631747546	0.06194428887497874	0	0	0	-1.103014873769928	-1.438311906425243	12.8538064456575	21.4380563955956	-3.366732331817736	18.47444543631063	36.31431826612608	179.8760176834122	0	0	11.39880597551555	-13.06834232179581	9.434425616342503	34.2232175809138	151.0569862498288	0	0
0.26	-2.272881176514304	-3.058787167065335	36.18698063898908	0	0.9399999999999999	0	2.317516603834236	-1.122639566664011	-0.7804740680640242	3.565109132689269	0.06222289255834714	1.099294675661063e-53	0	0	2.317516603834236	-1.122639566664011	-0.7804740680640242	3.565109132689269	0.06222289255834714	1.099294675661063e-53	0	0	-1.090523865829617	-1.432144895887569	12.8116170491183	21.43956236182485	-3.293779535830827	18.77719913631896	36.22597143768765	179.8809450572021	0	0	11.37747265337139	-13.06291761910667	9.443140093426861	34.21328902850065	151.0359537678692	0	0
0.28	-2.264192581921428	-3.055383635729587	36.23959820180936	0	0.9399999999999999	0	2.330271037936348	-1.129251907389426	-0.7848107639009924	3.583595993791153	0.06254554915293389	0	0	0	2.330271037936348	-1.129251907389426	-0.7848107639009924	3.583595993791153	0.06254554915293389	0	0	0	-1.082454495604707	-1.432396666854832	12.77795323604859	21.4400773975931	-3.210144047986724	19.00248749720448	36.05569302909655	179.8806208634106	0	0	11.39522538812557	-13.05746469219375	9.33762281760885	34.17155032966541	151.0789374560815	0	0
0.3	-2.242693245225598	-3.047524888035505	36.27756676677475	0	0.9399999999999999	0	2.349245862612917	-1.139081212996441	-0.791262539181644	3.611064782123674	0.06302496995086979	0	0	0	2.349245862612917	-1.139081212996441	-0.791262539181644	3.611064782123674	0.06302496995086979	0	0	0	-1.062045213312401	-1.437521706753011	12.7521230943571	21.41003677680332	-3.180347709941504	18.98039212258308	35.97353291402771	179.8804242442575	0	0	11.36288763884712	-13.08304535007291	9.336313180487243	34.14080560492509	151.0255102073285	0	0
0.32	-2.249627067627972	-3.029213018045191	36.32459333100245	0	0.9399999999999999	0	2.362384174342813	-1.145887742050923	-0.795730551604995	3.630061865496161	0.06335653160399556	0	0	0	2.362384174342813	-1.145887742050923	-0.795730551604995	3.630061865496161	0.06335653160399556	0	0	0	-1.058028160572922	-1.415962027940833	12.71011855605746	21.38942970679261	-3.13015059023219	19.25068013827852	35.83949405057752	179.879378486889	0	0	11.35144500363384	-13.05266199015708	9.246608418449547	34.14284166913319	151.029519061855	0	0
